<svg width="40" height="40" viewBox="0 0 40 40" fill="none" xmlns="http://www.w3.org/2000/svg">
<g opacity="0.25" filter="url(#filter0_f_349_1095)">
<rect x="6.02637" y="20" width="27.2489" height="17.0306" rx="7.21875" fill="url(#paint0_linear_349_1095)"/>
</g>
<rect x="5.2002" y="5.2002" width="29.5197" height="29.5197" rx="7.21875" fill="url(#paint1_linear_349_1095)"/>
<g filter="url(#filter1_i_349_1095)">
<path d="M27.6661 16.1535C27.4828 15.4645 26.9406 14.921 26.2509 14.7347C25.0036 14.4004 19.9995 14.4004 19.9995 14.4004C19.9995 14.4004 14.9979 14.4004 13.7482 14.7347C13.0609 14.9184 12.5188 15.462 12.333 16.1535C11.9995 17.4039 11.9995 20.0144 11.9995 20.0144C11.9995 20.0144 11.9995 22.625 12.333 23.8754C12.5162 24.5643 13.0584 25.1079 13.7482 25.2942C14.9979 25.6285 19.9995 25.6285 19.9995 25.6285C19.9995 25.6285 25.0036 25.6285 26.2509 25.2942C26.9381 25.1104 27.4803 24.5669 27.6661 23.8754C27.9995 22.625 27.9995 20.0144 27.9995 20.0144C27.9995 20.0144 27.9995 17.4039 27.6661 16.1535Z" fill="white"/>
<path d="M18.401 22.4208L22.5576 20.0144L18.401 17.608V22.4208Z" fill="#FF0000"/>
</g>
<defs>
<filter id="filter0_f_349_1095" x="4.71255" y="18.6862" width="29.8766" height="19.6579" filterUnits="userSpaceOnUse" color-interpolation-filters="sRGB">
<feFlood flood-opacity="0" result="BackgroundImageFix"/>
<feBlend mode="normal" in="SourceGraphic" in2="BackgroundImageFix" result="shape"/>
<feGaussianBlur stdDeviation="0.656906" result="effect1_foregroundBlur_349_1095"/>
</filter>
<filter id="filter1_i_349_1095" x="10.7998" y="11.2002" width="18" height="18.1203" filterUnits="userSpaceOnUse" color-interpolation-filters="sRGB">
<feFlood flood-opacity="0" result="BackgroundImageFix"/>
<feBlend mode="normal" in="SourceGraphic" in2="BackgroundImageFix" result="shape"/>
<feColorMatrix in="SourceAlpha" type="matrix" values="0 0 0 0 0 0 0 0 0 0 0 0 0 0 0 0 0 0 127 0" result="hardAlpha"/>
<feOffset dy="0.120313"/>
<feGaussianBlur stdDeviation="0.300781"/>
<feComposite in2="hardAlpha" operator="arithmetic" k2="-1" k3="1"/>
<feColorMatrix type="matrix" values="0 0 0 0 0 0 0 0 0 0 0 0 0 0 0 0 0 0 0.1 0"/>
<feBlend mode="normal" in2="shape" result="effect1_innerShadow_349_1095"/>
</filter>
<linearGradient id="paint0_linear_349_1095" x1="21.5341" y1="37.5385" x2="15.9798" y2="17.9617" gradientUnits="userSpaceOnUse">
<stop stop-color="#DB0505"/>
<stop offset="1" stop-color="#FF0000"/>
</linearGradient>
<linearGradient id="paint1_linear_349_1095" x1="22.0002" y1="35.6002" x2="8.2002" y2="5.20019" gradientUnits="userSpaceOnUse">
<stop stop-color="#DB0505"/>
<stop offset="1" stop-color="#FF0000"/>
</linearGradient>
</defs>
</svg>
